<svg width="240" height="240" viewBox="0 0 240 240" fill="none" xmlns="http://www.w3.org/2000/svg">
<path d="M66 156C82.5413 156 96 142.541 96 126C96 109.459 82.5413 96 66 96C49.4587 96 36 109.459 36 126C36 142.541 49.4587 156 66 156ZM198 108H114C110.685 108 108 110.685 108 114V168H24V90C24 86.685 21.315 84 18 84H6C2.685 84 0 86.685 0 90V222C0 225.315 2.685 228 6 228H18C21.315 228 24 225.315 24 222V204H216V222C216 225.315 218.685 228 222 228H234C237.315 228 240 225.315 240 222V150C240 126.802 221.198 108 198 108Z" fill="#404040"/>
</svg>
