<svg width="240" height="240" viewBox="0 0 240 240" fill="none" xmlns="http://www.w3.org/2000/svg">
<path d="M228 207H204V42.5434C204 32.3209 195.926 23.9996 186 23.9996H144V47.9996H180V237H231C237.315 237 240 234.315 240 228V219C240 209.685 237.315 207 228 207ZM117.09 0.378385L45.09 19.0309C39.7462 20.4146 36 25.3871 36 31.0946V207H12C2.685 207 0 209.685 0 219V225C0 234.315 2.685 237 12 237H132V12.4421C132 4.34964 124.665 -1.58662 117.09 0.378385ZM99 135C94.0312 135 90 129.626 90 123C90 116.373 94.0312 111 99 111C103.969 111 108 116.373 108 123C108 129.626 103.969 135 99 135Z" fill="#DEDEDE"/>
</svg>
