<svg width="240" height="240" viewBox="0 0 240 240" fill="none" xmlns="http://www.w3.org/2000/svg">
<g clip-path="url(#clip0_118_496)">
<path d="M64.5499 41.5783C58.2144 32.384 45.3811 29.8953 37.2546 37.5944C23.6293 50.5034 13.1731 66.4147 6.84634 84.0996C-1.74756 108.122 -2.26438 134.136 5.37257 158.28C13.0095 182.425 28.3932 203.413 49.2401 218.129C70.0871 232.846 95.2861 240.507 121.097 239.974C146.908 239.441 171.955 230.744 192.52 215.173C213.085 199.602 228.073 177.987 235.257 153.537C242.442 129.087 241.442 103.104 232.404 79.4458C225.782 62.1095 215.102 46.6984 201.335 34.385C192.953 26.8881 180.156 29.7732 174.035 39.1633C167.833 48.6769 170.958 61.2228 178.678 69.5835C185.223 76.6726 190.395 84.9593 193.868 94.0518C199.807 109.599 200.465 126.674 195.743 142.742C191.022 158.81 181.172 173.015 167.658 183.247C154.143 193.48 137.683 199.196 120.721 199.546C103.759 199.896 87.1989 194.861 73.499 185.19C59.799 175.519 49.6894 161.726 44.6707 145.859C39.6519 129.992 39.9916 112.897 45.6392 97.1102C49.015 87.674 54.1797 79.0063 60.7955 71.5391C68.211 63.1693 70.8855 50.7727 64.5499 41.5783Z" fill="#D9D9D9"/>
<path d="M140.306 11.2954V124.249C140.306 130.508 134.187 135.544 126.581 135.544H108.28C100.674 135.544 94.5544 130.508 94.5544 124.249V11.2954C94.5544 5.03584 100.674 0 108.28 0H126.581C134.187 0 140.306 5.03584 140.306 11.2954Z" fill="#D9D9D9"/>
</g>
<defs>
<clipPath id="clip0_118_496">
<rect width="240" height="240" fill="white"/>
</clipPath>
</defs>
</svg>
