<svg width="240" height="240" viewBox="0 0 240 240" fill="none" xmlns="http://www.w3.org/2000/svg">
<path d="M53.1102 240H35.8661C21.5859 240 10 228.482 10 214.286V25.7143C10 11.5179 21.5859 0 35.8661 0H53.1102C67.3905 0 78.9764 11.5179 78.9764 25.7143V214.286C78.9764 228.482 67.3905 240 53.1102 240Z" fill="#404040"/>
<path d="M203.134 240H185.89C171.61 240 160.024 228.482 160.024 214.286V25.7143C160.024 11.5179 171.61 0 185.89 0H203.134C217.414 0 229 11.5179 229 25.7143V214.286C229 228.482 217.414 240 203.134 240Z" fill="#404040"/>
</svg>
